<?xml version="1.0" encoding="UTF-8" standalone="no"?>
<svg width="800" height="800" viewBox="0 0 800 800" xmlns="http://www.w3.org/2000/svg">
  <g fill="#0A3B5C" stroke="#FFFFFF" stroke-width="1">
    <!-- Bisha region map - simplified version for demonstration -->
    <path id="bisha" d="M350 250 C380 230 420 240 450 270 C470 290 480 320 470 350 C460 380 430 400 400 410 C370 420 340 410 320 390 C300 370 290 340 300 310 C310 280 330 260 350 250 Z" />
    <path id="balqarn" d="M200 150 C230 140 260 150 280 180 C290 200 290 230 280 250 C270 270 250 280 230 280 C210 280 190 270 180 250 C170 230 170 200 180 180 C190 160 210 150 200 150 Z" />
    <path id="tathlith" d="M500 200 C530 190 560 200 580 220 C600 240 610 270 600 300 C590 330 560 350 530 350 C500 350 470 330 460 300 C450 270 460 240 480 220 C490 210 510 200 500 200 Z" />
    <path id="alshaqiq" d="M280 450 C310 440 340 450 360 470 C380 490 390 520 380 550 C370 580 340 600 310 600 C280 600 250 580 240 550 C230 520 240 490 260 470 C270 460 290 450 280 450 Z" />
    <path id="alnamas" d="M150 300 C180 290 210 300 230 320 C250 340 260 370 250 400 C240 430 210 450 180 450 C150 450 120 430 110 400 C100 370 110 340 130 320 C140 310 160 300 150 300 Z" />
    <path id="tarib" d="M400 150 C430 140 460 150 480 170 C500 190 510 220 500 250 C490 280 460 300 430 300 C400 300 370 280 360 250 C350 220 360 190 380 170 C390 160 410 150 400 150 Z" />
    <path id="alkhurmah" d="M550 300 C580 290 610 300 630 320 C650 340 660 370 650 400 C640 430 610 450 580 450 C550 450 520 430 510 400 C500 370 510 340 530 320 C540 310 560 300 550 300 Z" />
    <path id="sabt" d="M450 500 C480 490 510 500 530 520 C550 540 560 570 550 600 C540 630 510 650 480 650 C450 650 420 630 410 600 C400 570 410 540 430 520 C440 510 460 500 450 500 Z" />
  </g>
  <g fill="#FFFFFF" font-family="Arial" font-size="16" text-anchor="middle">
    <text x="400" y="350" id="bisha-text">بيشة</text>
    <text x="230" y="220" id="balqarn-text">بلقرن</text>
    <text x="550" y="280" id="tathlith-text">تثليث</text>
    <text x="310" y="520" id="alshaqiq-text">الشقيق</text>
    <text x="180" y="380" id="alnamas-text">النماص</text>
    <text x="430" y="220" id="tarib-text">طريب</text>
    <text x="600" y="380" id="alkhurmah-text">الخرمة</text>
    <text x="480" y="580" id="sabt-text">سبت العلايا</text>
  </g>
</svg>
